<?xml version="1.0" encoding="UTF-8"?>
<svg id="Layer_2" data-name="Layer 2" xmlns="http://www.w3.org/2000/svg" viewBox="0 0 166.38 98.24">
  <defs>
    <style>
      .cls-1 {
        fill: #dc6826;
      }

      .cls-2 {
        fill: #fbaf35;
      }

      .cls-3 {
        fill: #243874;
      }
    </style>
  </defs>
  <g id="Layer_1-2" data-name="Layer 1">
    <path class="cls-1" d="M89.4,10.96c-2.51-.39-1.18-2.86-4.11-1.73l.93,12.3c.33,4.43.73,9.11-1.07,13.76-2.36-6.35-1.03-13.56-.62-20.18l.37-5.96c-.42-.22-1.58-.26-1.86.1-.56.74-1.13,1.5-1.9,1.65-1.06.2-1.79-.43-2.58-1.11-.45-.23-1.58.08-2,.39l5.56,15.75c.88,2.49,1.1,5.01,1.24,7.62.04.69.28,1.23-.28,1.98-1.05-2.03-1.9-3.82-2.76-5.83-.7-1.65-.96-3.44-1.3-5.21l-2.75-14.2c-.6,0-1.58.23-1.81.63-.31.95-.77,1.91-1.68,2.19-.84.26-1.7-.11-2.6-.69-.53.2-1.24.6-1.78.98l10.14,14.88c.39.58,3.68,7.83,3.32,8.72-1.96-2.31-4.01-4.4-5.48-6.99-3.03-5.35-5.38-10.82-8.17-16.4-2.61.83-.79,1.98-2.44,3.5-.77.71-1.83.64-2.8.35-.46.16-1.04.69-1.43,1.23l13.47,11.72c2.42,2.1,3.94,4.9,5.81,7.7-4.15-2.49-6.65-4.37-9.81-8.03l-6.88-7.96-2.79-3.22c-.46.4-.98.92-1.33,1.35.43,1.01.52,1.86,0,2.6-1.59,2.25-3.35-.36-3.59,2.61l8.26,4.2c2.91,1.48,5.86,2.63,8.6,4.39,2.42,1.56,4.49,3.37,6.69,5.42-6.49-1.83-9.09-3.49-14.3-7.14l-9.58-6.7-.84,1.76c.62.87.89,1.7.53,2.73-.63,1.78-2.86.39-2.91,3.24l18.45,3.95c2.88.62,5.36,2.3,8.11,3.66-3.07-.21-6.13-.33-9.1-1.16-6-1.68-11.52-4.05-17.44-6.07-.31.5-.54,1.39-.44,1.92.76.67,1.28,1.49,1.17,2.36-.13,1.1-.79,1.69-1.98,2.07-.06.52-.05,1.32.03,1.88l6.65-.38c4.4-.25,8.72-.95,13.13-.57,2.71.23,5.24.86,8.03,1.45-8.1,1.83-12.32,1.07-20.32.48l-7.5-.56c-.01.49.03,1.31.11,1.84,1.03.44,1.65,1.03,1.83,1.99s-.37,1.86-1.2,2.54c-.08.51.15,1.32.42,1.94l5.82-2.04,11.13-3.69c3.07-1.02,6.3-.9,9.41-.82-2.84,1.28-5.44,2.85-8.44,3.43l-14.86,2.86-3.11.56c.13.6.41,1.48.76,1.81.89.33,1.87.74,2.14,1.34.49,1.07.16,2.03-.51,2.9.09.49.55,1.24.95,1.72l6.35-4.33c2.98-2.03,5.87-4.03,8.99-5.85,2.4-1.4,4.96-2.18,7.68-2.94-.74,1.23-1.69,1.97-2.72,2.82-1.74,1.44-3.53,2.54-5.59,3.52l-14.57,6.95c.28.6.68,1.32,1.04,1.64.99-.03,1.96.05,2.51.73,1.6,1.99-.87,3.19,1.68,4.05l11.13-12.52c1.38-1.55,2.9-2.76,4.66-3.67-1.38,2.35-2.28,4.98-4.24,6.69l-11.42,9.98c.34.42,1.01,1.01,1.47,1.18.92-.17,1.86-.3,2.54.24,2.1,1.65-.02,3.16,2.74,3.59l5.26-10.72.85,2.19-5.8,8.85c.55.42,1.23.8,1.82.94.92-.71,2.17-1.07,3.15-.19.55.49,1.04,1.32,1.5,2.06-1.32,1.85-.79,3.84.59,5.51-.05,2.06-.25,4.43-.63,6.6-2.47-1.68-4.5-2.79-6.95-3.78-2.3-.93-4.57-1.93-6.98-2.54-1.13-.29-2.1-.56-3.15-.95-9-3.29-29.12-5.61-38.95-5.92l-11.87-.38.02-55.08c0-8.46,6.1-15.9,14.53-17.09C25.02-.13,28.26.03,31.65.03l27.74.03h35.8s43.5.03,43.5.03c2.37,0,4.6-.06,6.88.41,8.13,1.66,13.6,8.93,13.6,17.19l.03,54.97-11.53.21c-12.14.22-31.23,2.96-42.77,7.12-3.47,1.25-6.51,2.81-9.66,4.77-2.68-7.58,2.64-5.03.15-10.81.35-.59.72-1.27,1.12-1.79.89-1.16,2.54-.91,3.51.13l1.78-1.07-5.76-8.67c-.06-.73.39-1.83.85-2.44l5.16,10.94c2.91-.87.67-2.04,2.51-3.67s3.22,1.03,4.08-1.68l-2.24-1.9-6.51-5.5c-4-3.38-4.05-4.5-7.04-9.33,1.9,1.14,3.74,2.48,5.36,4.32l10.75,12.22c.5-.24,1.17-.84,1.34-1.33-.3-.92-.47-1.88.02-2.57.61-.87,1.56-1.11,2.74-.99.4-.34.81-1.12,1.03-1.69l-12.53-5.83c-2.84-1.32-5.4-2.75-7.77-4.78-.93-.8-2.13-1.24-2.4-2.64,6.98,1.93,10.37,4.73,16.14,8.57l6.7,4.45c.42-.37.89-1.14.95-1.67-.57-.85-.92-1.69-.59-2.7.25-.78,1.14-1.35,2.19-1.55.29-.42.49-1.15.56-1.82l-6.96-1.25-7-1.34c-1.98-.38-3.96-.67-5.81-1.39-2.21-.87-4.25-1.69-6.47-2.86,3.09-.04,6.23-.24,9.28.77l14.55,4.83,2.59.93.42-1.92c-.91-.66-1.28-1.42-1.22-2.35.07-1.04.75-1.71,1.87-2.12.16-.46.18-1.37.13-1.93l-4.29.31c-8.43.61-15.39,1.82-23.58-.2,7.4-1.84,10.15-1.82,17.44-1.16,3.55.32,6.88.53,10.41.67.72-2.84-1.62-1.65-1.96-3.68-.47-2.77,2.3-1.71.69-4.58l-11.71,4.22c-6.28,2.26-7.71,2.47-14.69,3.08,2.32-1.47,4.52-2.37,6.88-3.41,1.85-.81,3.88-.98,5.9-1.4l13.46-2.77c.55-2.63-2.49-1.72-2.81-3.71-.13-.82.14-1.59.61-2.37-.15-.45-.51-1.11-.88-1.65l-10.72,7.41c-4.6,3.18-7.45,4.73-13.07,6.36,2.22-2.05,4.28-3.93,6.75-5.49,3.14-1.99,6.52-3.33,9.83-5.01l6.93-3.51c.01-.46-.47-1.45-.9-1.49-.98-.06-1.99-.18-2.58-.97-.55-.73-.53-1.73-.12-2.72-.19-.49-.82-1.08-1.41-1.26l-11.82,13.41c-2.05,2.32-4.68,3.87-7.41,5.72,3.05-6.17,7.51-9.52,12.36-13.7l6.66-5.73c-.08-.35-.8-1.23-1.22-1.21-.93.12-2.02.36-2.76-.27-1.99-1.68.18-2.79-2.63-3.63l-4.32,8.93c-3.34,6.92-3.85,8.43-9.35,14.64.7-3.65,2-7,3.98-9.92l3.77-5.55,5.81-8.3-1.84-.96c-.89.66-1.72.96-2.58.65-.91-.33-1.49-1.09-1.64-2.22-.44-.25-1.22-.5-1.94-.66l-2.71,14.49c-.29,1.52-.51,3-1.09,4.49s-2.07,5.08-2.96,6.19c-.64.8-.03-6.35.41-7.6l6.08-17.53c-2.57-1.61-2.14,1.03-4.28.7Z"/>
    <path class="cls-2" d="M156.32,90.32c.91.04,1.74.02,2.58-.04-.82-1.39-1.28-2.43-.82-4,.31-1.04,1.16-2.39,2.51-2.8,1.45-.44,2.92-.15,4.09.79.97.78,1.59,2.06,1.69,3.56.21,2.86-2.16,5.18-5.1,5.17l-11.07-.02-12.61.04-40.4.07c-7.65,6.71-16.24,6.78-23.83-.02l-63.27-.02c-2.06,0-3.82-.07-5.76-.21-2.16-.16-3.83-1.94-4.22-3.77-.46-2.21.55-4.44,2.53-5.36,1.52-.71,2.94-.46,4.18.45,1.99,1.46,2.32,3.8.7,6.03.76.29,1.84.29,2.63-.03.9-1.93,1.09-3.92,1.06-6.09l15.09.31c9.27.19,18.27,1.25,27.46,2.45,4.92.64,9.48,1.68,14.28,2.8,1.82.43,3.61.8,4.96.99-10.32-5.14-23.56-7.02-34.65-8.05-8.97-.83-17.64-1.35-26.64-1.13-.77.02-1.43-.3-1.72-.95l-1.81-4.12c17.71-.2,38.3,1.59,55.04,7.24,3.01,1.02,5.71,2.31,8.59,3.66,4.01,1.89,7.64,4.38,11.01,7.23.69.58,1.18.9,1.99.99,1.81.21,2.19-.62,3.18-1.69,13.07-14.14,42.96-16.9,61.21-17.28l7.97-.17c.53-.01.72,1.03.53,1.39l-1.28,2.47c-.36.7-1.12,1.12-1.97,1.14l-11.95.25c-4.65.1-9.02.54-13.67.96-7.39.66-14.53,1.83-21.72,3.49-4.26.99-4.95,1.5-8.74,3.05-2.69,1.38-1.95,1.49-1.95,1.49l3.92-.98c5.49-1.37,10.83-2.59,16.47-3.22l6.29-.7c10.06-1.11,19.98-1.6,30.09-1.59.71,0,1.37.03,1.97.14.08,2.25.43,3.88,1.15,6.06Z"/>
    <path class="cls-3" d="M91.87,50.56l4.07,6.92c-2.04,5.08-3.64,10.03-4.13,15.61l-13.09-.02c-.64-5.34-2.09-10.33-4.27-15.48l4.76-8.3c1.4-2.6,2.58-5.14,3.59-7.91.86-2.35-.15-2.83.56-3.85.19-.27.85-.45,1.38-.43l-.04,18.69c-.92.57-1.63,1.16-1.52,2.22s.87,1.82,2.05,1.8c.91-.02,1.73-.56,1.94-1.66.18-.96-.29-1.89-1.52-2.33v-18.78c2.3-.17,1.33,2.53,1.65,3.57,1.1,3.54,2.68,6.67,4.55,9.95Z"/>
    <path class="cls-3" d="M92.27,86.95c-2.78,1.94-4.78,4.32-7.07,6.81l-3.86-3.53c-1.24-1.14-2.78-1.95-4.25-2.87.29-2.87.65-5.67.58-8.56-.8-.76-1.92-1.5-1.59-2.79.24-.95,1.13-1.94,2.4-1.93l14.1.08c1.12,0,1.73,1.32,1.75,2.15.03,1.05-.56,1.93-1.69,2.46.08,1.96.36,4.18.66,6.19.18,1.18-.21,1.39-1.04,1.98Z"/>
    <path class="cls-1" d="M162.61,92.83c-2.33.65-4.45.18-6.81.18h-50.82s-7.35.03-7.35.03c-.94,0-2.86,2.9-8.38,4.55-2.53.76-4.89.9-7.44.17-5.12-1.46-4.5-1.7-8.57-4.78H8.66c-1.84.01-3.43.39-5.1-.24-1.41-.53-2.72-1.55-3.16-2.64-.66-1.64-.47-3.22.32-4.53.95-1.57,2.54-2.49,4.29-2.2,2.25.37,3.68,1.98,3.46,4.3-.1,1-.44,1.89-1.09,2.69h66.63s2.91,2.19,2.91,2.19c5.41,4.09,11.79,3.89,17.07-.33.89-.71,1.85-1.46,2.98-1.87h62.09c-1.29-1.49-1.53-3.52-.64-5.1.98-1.74,3.02-2.31,4.81-1.76s2.77,2.03,3.09,4.06c.37,2.35-1.22,4.57-3.72,5.27Z"/>
  </g>
</svg>